<?xml version="1.0" encoding="UTF-8" standalone="no"?>
<!DOCTYPE svg PUBLIC "-//W3C//DTD SVG 1.1//EN" "http://www.w3.org/Graphics/SVG/1.1/DTD/svg11.dtd">
<svg width="100%" height="100%" viewBox="0 0 12 12" version="1.1" xmlns="http://www.w3.org/2000/svg" xmlns:xlink="http://www.w3.org/1999/xlink" xml:space="preserve" xmlns:serif="http://www.serif.com/" style="fill-rule:evenodd;clip-rule:evenodd;stroke-linejoin:round;stroke-miterlimit:2;">
    <g id="Artboard1" transform="matrix(1.53914,0,0,1.09539,-20.3267,-15.4134)">
        <g>
            <rect x="0" y="0" width="50" height="50" style="fill:none;"/>
            <g>
                <clipPath id="_clip1">
                    <rect x="0" y="0" width="50" height="50"/>
                </clipPath>
                <g clip-path="url(#_clip1)">
                    <g transform="matrix(0.78035,0,0,1.09648,9.27623,9.846)">
                        <path d="M14.497,6.601L14.497,11.062C14.497,12.293 13.498,13.292 12.267,13.292L7.806,13.292C6.575,13.292 5.575,12.293 5.575,11.062L5.575,6.601C5.575,5.37 6.575,4.371 7.806,4.371L12.267,4.371C13.498,4.371 14.497,5.37 14.497,6.601Z" style="fill:rgb(174,89,1);"/>
                    </g>
                    <g transform="matrix(0.649714,0,0,0.912918,0,0)">
                        <path d="M23.774,24.767C23.764,24.835 23.737,24.837 23.791,24.837" style="fill:rgb(161,82,0);"/>
                        <path d="M23.58,24.75C23.577,24.747 23.574,24.744 23.571,24.74L23.621,24.753C23.662,24.755 23.725,24.759 23.786,24.767C23.789,24.76 23.791,24.752 23.793,24.743C23.792,24.749 23.792,24.757 23.791,24.768C23.89,24.781 23.982,24.804 23.97,24.846C23.969,24.85 23.897,24.862 23.895,24.861C23.858,24.855 23.823,24.839 23.786,24.829C23.777,24.903 23.752,24.984 23.677,24.91C23.663,24.896 23.644,24.862 23.639,24.846C23.62,24.79 23.615,24.789 23.58,24.75ZM23.793,24.743L23.793,24.738L23.793,24.743ZM23.58,24.75L23.577,24.75L23.58,24.75Z" style="fill:white;"/>
                    </g>
                    <g transform="matrix(1,0,0,1,-12.4198,-6.27989)">
                        <g transform="matrix(0.698921,0,0,0.98206,30.4522,-21.4266)">
                            <g transform="matrix(0.929595,-0,-0,0.929594,-6.90479,42.5409)">
                            </g>
                        </g>
                        <g transform="matrix(0.600408,0,0,0.843638,32.3891,-8.02604)">
                            <g transform="matrix(1.08212,-0,-0,1.08212,-11.2637,33.6366)">
                            </g>
                        </g>
                    </g>
                    <g transform="matrix(0.649714,0,0,0.912918,0,0)">
                        <path d="M18.991,23.511C19.563,23.511 20.028,23.543 20.028,23.583C20.028,23.623 19.563,23.655 18.991,23.655C18.419,23.655 17.954,23.623 17.954,23.583C17.954,23.543 18.419,23.511 18.991,23.511ZM18.991,23.547C19.277,23.547 19.51,23.563 19.51,23.583C19.51,23.603 19.277,23.619 18.991,23.619C18.705,23.619 18.473,23.603 18.473,23.583C18.473,23.563 18.705,23.547 18.991,23.547Z" style="fill:none;"/>
                    </g>
                    <g transform="matrix(0.649714,0,0,0.912918,0,0)">
                        <path d="M22.564,19.637C24.21,19.136 24.504,17.131 24.325,18.278C23.958,20.624 22.941,23.795 22.79,24.265C25.899,19.851 26.914,18.15 27.243,17.599" style="fill:rgb(161,82,0);"/>
                        <path d="M23.973,18.836C23.932,18.881 23.89,18.926 23.845,18.969C23.029,19.77 22.091,19.794 22.691,19.523C23.937,18.957 24.031,17.684 24.387,17.72C24.545,17.736 24.746,17.81 24.314,19.711C24.032,20.95 23.636,22.244 23.316,23.232C24.329,21.813 26.166,19.214 27.024,17.826C27.078,17.739 27.118,17.642 27.186,17.565C27.249,17.493 27.333,17.544 27.3,17.634C27.173,17.975 23.697,23.351 22.966,24.291C22.963,24.3 22.96,24.309 22.957,24.318L22.948,24.314C22.892,24.385 22.855,24.426 22.84,24.43C22.707,24.471 22.585,24.343 22.623,24.212C23.253,22.072 23.508,21.024 23.973,18.836Z" style="fill:white;"/>
                    </g>
                    <g transform="matrix(0.649714,0,0,0.912918,0,-0.0604401)">
                        <path d="M28.361,19.154C26.065,24.662 25.241,25.356 24.782,25.742C27.889,18.117 29.844,18.58 30.231,19.454C31.66,22.683 26.769,24.446 26.876,22.846" style="fill:rgb(161,82,0);"/>
                        <path d="M26.829,23.015C26.022,24.729 25.445,25.459 24.91,25.893C24.755,26.019 24.522,25.857 24.6,25.668C26.352,21.424 27.595,20.102 28.085,19.636C28.154,19.489 28.224,19.339 28.295,19.185C28.307,19.16 28.327,19.09 28.378,19.112C28.401,19.121 28.409,19.143 28.304,19.436C29.845,18.107 30.64,19.353 30.586,20.727C30.495,23.05 27.025,24.251 26.829,23.015ZM27.671,20.508C26.737,21.755 25.918,23.528 25.424,24.694C25.872,24.03 26.563,22.819 27.671,20.508ZM28.093,19.993C28.026,20.166 27.945,20.373 27.848,20.621C27.504,21.493 27.196,22.221 26.915,22.83C26.923,22.842 26.928,22.86 26.928,22.884C26.946,24.308 31.522,22.546 30.133,19.495C29.952,19.098 29.406,18.817 28.518,19.576C28.375,19.698 28.233,19.838 28.093,19.993Z" style="fill:white;"/>
                    </g>
                </g>
            </g>
        </g>
    </g>
</svg>
